
<svg xmlns="http://www.w3.org/2000/svg" xmlns:xlink="http://www.w3.org/1999/xlink" width="100%" height="100%">
	<defs></defs>
	<symbol id="warranty" viewBox="0 0 59.8 59.9">
		<style type="text/css">
			.warranty-st0{fill:#00B8E3;}
			.warranty-st1{fill:#FFFFFF;}
		</style>
		<path class="warranty-st0" d="M26.4,35.8c0.2,0.2,0.5,0.4,0.9,0.4c0.3,0,0.6-0.1,0.9-0.4l10-10c0.5-0.5,0.5-1.2,0-1.7c-0.5-0.5-1.2-0.5-1.7,0
			l-9.2,9.2l-3.9-3.9c-0.5-0.5-1.2-0.5-1.7,0c-0.5,0.5-0.5,1.2,0,1.7L26.4,35.8z M26.4,35.8"/>
		<path class="warranty-st1" d="M1.8,55c-0.9,0.5-1.4,1.4-1.3,2.4c0.2,1,0.9,1.8,1.9,2c0.7,0.1,1.6,0.2,2.4,0.2c2.2,0,6.5-0.5,10.6-3.4
			c4.4,2.4,9.4,3.7,14.5,3.7c8,0,15.5-3.1,21.2-8.8c11.7-11.7,11.7-30.7,0-42.3C45.4,3.1,37.9,0,29.9,0c-8,0-15.5,3.1-21.2,8.8
			c-11,11-11.7,28.6-1.8,40.4C5.6,52,3.9,54,1.8,55L1.8,55z M10.5,10.5c5.2-5.2,12.1-8.1,19.5-8.1c7.4,0,14.3,2.9,19.5,8.1
			c10.7,10.7,10.7,28.2,0,38.9c-5.2,5.2-12.1,8.1-19.5,8.1c-4.9,0-9.7-1.3-13.9-3.8c-0.2-0.1-0.4-0.2-0.6-0.2c-0.3,0-0.5,0.1-0.7,0.3
			c-3.8,2.9-7.8,3.4-9.8,3.4c-0.6,0-1.2,0-1.7-0.1c2.6-1.4,4.8-3.9,6.4-7.6c0.2-0.4,0.1-0.9-0.2-1.3C-0.3,37.3,0.2,20.8,10.5,10.5
			L10.5,10.5z M10.5,10.5"/>
	</symbol>
		<view id="warranty-view" viewBox="0 2531 59.8 59.9"></view>
	<use id="warranty-u" xlink:href="#warranty" y="2531"></use>
</svg>