<svg xmlns="http://www.w3.org/2000/svg" xmlns:xlink="http://www.w3.org/1999/xlink"><symbol id="a" viewBox="0 0 59.8 59.9"><path d="M26.4 35.8c.2.2.5.4.9.4.3 0 .6-.1.9-.4l10-10c.5-.5.5-1.2 0-1.7s-1.2-.5-1.7 0l-9.2 9.2-3.9-3.9c-.5-.5-1.2-.5-1.7 0s-.5 1.2 0 1.7l4.7 4.7zm0 0" style="fill:#00b8e3"/><path d="M1.8 55c-.9.5-1.4 1.4-1.3 2.4.2 1 .9 1.8 1.9 2 .7.1 1.6.2 2.4.2 2.2 0 6.5-.5 10.6-3.4 4.4 2.4 9.4 3.7 14.5 3.7 8 0 15.5-3.1 21.2-8.8 11.7-11.7 11.7-30.7 0-42.3C45.4 3.1 37.9 0 29.9 0S14.4 3.1 8.7 8.8c-11 11-11.7 28.6-1.8 40.4C5.6 52 3.9 54 1.8 55zm8.7-44.5C15.7 5.3 22.6 2.4 30 2.4s14.3 2.9 19.5 8.1c10.7 10.7 10.7 28.2 0 38.9-5.2 5.2-12.1 8.1-19.5 8.1-4.9 0-9.7-1.3-13.9-3.8-.2-.1-.4-.2-.6-.2-.3 0-.5.1-.7.3C11 56.7 7 57.2 5 57.2c-.6 0-1.2 0-1.7-.1 2.6-1.4 4.8-3.9 6.4-7.6.2-.4.1-.9-.2-1.3-9.8-10.9-9.3-27.4 1-37.7zm0 0" style="fill:#fff"/></symbol><view viewBox="0 2531 59.8 59.9"/><use xlink:href="#a" y="2531"/></svg>