<svg xmlns="http://www.w3.org/2000/svg" viewBox="0 0 12 9" width="100%" height="100%">
	<g>
		<path fill="currentColor" d="M10.59 0L1.41 0C0.63 0 0 0.64 0 1.44L0 7.56C0 8.36 0.63 9 1.41 9L10.59 9C11.37 9 12 8.36 12 7.56L12 1.44C12 0.64 11.37 0 10.59 0ZM11.06 7.56C11.06 7.83 10.85 8.04 10.59 8.04L1.41 8.04C1.15 8.04 0.94 7.83 0.94 7.56L0.94 1.44C0.94 1.17 1.15 0.96 1.41 0.96L10.59 0.96C10.85 0.96 11.06 1.17 11.06 1.44L11.06 7.56ZM10.98 0.6L6 4.38L1.02 0.6L0.46 1.36L6 5.58L11.54 1.36L10.98 0.6Z" />
	</g>
</svg>